<svg height="71" viewBox="0 0 163 71" width="163" xmlns="http://www.w3.org/2000/svg"><g fill="none"><path d="m34.3 43.2c-1.7.9-3.5 1.6-5.5 2-2 .5-4.1.7-6.3.7-6.8 0-12.3-2.1-16.4-6.2-4-4.2-6.1-9.8-6.1-16.7 0-3.8.6-7.2 1.9-10.2 1.2-3 3.1-5.6 5.6-7.7 2-1.7 4.3-3 6.8-3.8 2.5-.9 5.2-1.3 8.3-1.3 6.8 0 12.3 2.1 16.4 6.3s6.2 9.7 6.2 16.7c0 2.9-.3 5.5-1 7.9-.7 2.3-1.7 4.5-3.2 6.4 1.3 1.1 2.7 2 4.2 2.6 1.5.7 3.1 1.1 4.9 1.3l-3.5 7.8c-2.5-.2-4.8-.9-6.9-1.8-2-1-3.8-2.4-5.4-4zm-11.7-6.5c3.5 0 6.3-1.2 8.3-3.6s3-5.8 3-10.1-1-7.7-3-10.1c-2-2.5-4.7-3.7-8.2-3.7s-6.2 1.2-8.2 3.7c-2 2.4-3 5.8-3 10.1s1 7.6 3 10.1 4.5 3.6 8.1 3.6z" fill="#1c8143"/><path d="m90.8 34.8c-2.1 3.7-4.8 6.5-8 8.4s-6.9 2.8-11.2 2.8c-6.7 0-12-2.1-16-6.2s-5.9-9.7-5.9-16.7c0-6.9 2.1-12.4 6.2-16.6s9.5-6.5 16.2-6.5c4.2 0 7.9.9 11 2.8s5.5 4.6 7.3 8.2l-8.6 4.3c-1-2.1-2.3-3.7-4-4.8s-3.6-1.6-5.8-1.6c-3.4 0-6.1 1.3-8.1 3.7-2 2.5-3 5.9-3 10.3s1 7.8 2.9 10.3c2 2.4 4.7 3.6 8.2 3.6 2.2 0 4.1-.5 5.8-1.5 1.6-1 3-2.6 4.1-4.7zm19.6 11.1c-5.3 0-9.7-1.6-12.9-4.8s-4.9-7.4-4.9-12.6 1.6-9.4 4.9-12.6 7.6-4.8 12.9-4.8c5.4 0 9.7 1.6 13 4.8s4.9 7.4 4.9 12.6-1.7 9.4-4.9 12.6c-3.3 3.2-7.6 4.8-13 4.8zm-7.6-17.4c0 3 .7 5.3 2.1 7.1 1.4 1.7 3.2 2.6 5.5 2.6s4.2-.9 5.6-2.6c1.4-1.8 2.1-4.1 2.1-7.1s-.7-5.3-2.1-7.1-3.2-2.6-5.6-2.6c-2.3 0-4.1.9-5.5 2.7s-2.1 4.1-2.1 7zm29.9 16.3v-32.6h10v3c1.3-1.3 2.7-2.2 4.3-2.8s3.4-.9 5.4-.9c3.6 0 6.3 1.1 8 3.4 1.7 2.2 2.6 5.7 2.6 10.3v19.7h-10v-19.3c0-2.2-.4-3.8-1.2-4.8s-2-1.5-3.7-1.5c-2 0-3.4.5-4.3 1.4-.9 1-1.3 2.6-1.3 4.9v19.2z" fill="#2b6cad"/><path d="m102.1 68.4c-.6 0-1.1-.3-1.4-.8h-.1v.7h-.8v-6.3h.9v2.5h.1c.2-.5.8-.8 1.4-.8 1.1 0 1.8.9 1.8 2.4 0 1.4-.7 2.3-1.9 2.3zm-.2-3.9c-.7 0-1.2.6-1.2 1.6s.5 1.5 1.2 1.5 1.2-.6 1.2-1.6c0-.9-.5-1.5-1.2-1.5zm3.6 5.5c.9 0 1.3-.4 1.7-1.5l1.7-4.8h-.9l-1.1 3.6h-.1l-1.1-3.6h-1l1.6 4.6-.1.2c-.2.5-.4.6-.8.6h-.3v.9z" fill="#292952"/><g transform="translate(112 54)"><path d="m4.2 14.5h-3.4v-14.3h3.4z" fill="#2b6cad"/><path d="m6.4 14.5v-10.5h3.1v1c.4-.4.8-.7 1.3-.9s1.1-.3 1.7-.3c1.1 0 1.9.4 2.5 1.1.5.7.8 1.8.8 3.3v6.3h-3.1v-6.2c0-.7-.1-1.2-.4-1.6-.2-.3-.6-.5-1.2-.5s-1.1.2-1.3.5c-.3.3-.4.8-.4 1.6v6.2zm11.6 0v-8.4h-1.6v-2h1.6v-.5-.3c0-1.1.3-1.9.8-2.4s1.4-.7 2.6-.7h.8c.3 0 .5.1.8.2v2.2h-.5c-.6 0-.9.1-1.1.2s-.3.4-.3.9v.4h1.9v1.9h-1.9v8.4h-3.1zm10.5.7c-1.7 0-3-.5-4-1.6s-1.5-2.4-1.5-4.2c0-1.7.5-3.1 1.5-4.2s2.3-1.6 4-1.6 3 .5 4 1.6 1.5 2.4 1.5 4.2c0 1.7-.5 3.1-1.5 4.2s-2.4 1.6-4 1.6zm-2.4-5.7c0 1 .2 1.8.6 2.3.4.6 1 .9 1.7.9s1.3-.3 1.7-.9.6-1.4.6-2.3c0-1-.2-1.8-.6-2.4s-1-.9-1.7-.9-1.3.3-1.7.9-.6 1.4-.6 2.4z" fill="#2b6cad"/><path d="m46 14.1c-.5.3-1.1.5-1.7.7s-1.3.2-1.9.2c-2.1 0-3.8-.7-5.1-2-1.3-1.4-1.9-3.2-1.9-5.4 0-1.2.2-2.3.6-3.3s1-1.8 1.7-2.5c.6-.6 1.3-1 2.1-1.2.8-.5 1.7-.6 2.6-.6 2.1 0 3.8.7 5 2 1.3 1.4 1.9 3.2 1.9 5.5 0 .9-.1 1.8-.3 2.6-.2.7-.5 1.5-1 2.1.4.4.8.6 1.3.9.5.2 1 .3 1.5.4l-1 2.6c-.7-.1-1.5-.3-2.1-.6-.6-.4-1.2-.9-1.7-1.4zm-3.6-2.1c1.1 0 1.9-.4 2.5-1.2s.9-1.9.9-3.3-.3-2.5-.9-3.3-1.4-1.2-2.5-1.2-1.9.4-2.5 1.2-.9 1.9-.9 3.3.3 2.5.9 3.3 1.4 1.2 2.5 1.2z" fill="#228d45"/></g><path d="m2 64.953h2.416c.116.988 1.145 1.635 2.473 1.635 1.337 0 2.25-.639 2.25-1.519 0-.78-.573-1.212-2.017-1.535l-1.561-.34c-2.208-.474-3.295-1.594-3.295-3.346 0-2.208 1.909-3.669 4.582-3.669 2.789 0 4.54 1.436 4.582 3.603h-2.35c-.082-1.013-.97-1.627-2.224-1.627-1.237 0-2.067.59-2.067 1.477 0 .74.581 1.154 1.959 1.47l1.453.307c2.399.514 3.445 1.544 3.445 3.37 0 2.324-1.885 3.793-4.856 3.793-2.88 0-4.715-1.37-4.79-3.619zm19.025 3.412-.913-2.906h-4.208l-.913 2.906h-2.574l4.16-11.978h2.946l4.167 11.978zm-3.046-9.687-1.536 4.905h3.13l-1.536-4.905zm1.253-3.287c-1.153 0-1.585-1.13-2.2-1.13-.381 0-.58.407-.58 1.013h-1.32c0-1.46.797-2.274 1.826-2.274 1.195 0 1.602 1.12 2.2 1.12.365 0 .556-.373.572-1.029h1.32c0 1.436-.813 2.3-1.818 2.3zm11.082.788c3.544 0 5.777 2.383 5.777 6.2 0 3.81-2.233 6.193-5.777 6.193-3.553 0-5.777-2.382-5.777-6.192 0-3.818 2.224-6.2 5.777-6.2zm0 2.092c-1.959 0-3.22 1.594-3.22 4.109 0 2.507 1.253 4.092 3.22 4.092 1.959 0 3.212-1.585 3.212-4.092 0-2.515-1.253-4.109-3.212-4.109zm10.75-1.884h4.872c2.457 0 4.15 1.635 4.15 4.1 0 2.457-1.751 4.1-4.274 4.1h-2.242v3.778h-2.507v-11.978zm2.506 1.984v4.258h1.694c1.436 0 2.274-.764 2.274-2.133 0-1.362-.83-2.125-2.266-2.125zm15.838 9.994-.913-2.906h-4.208l-.913 2.906h-2.574l4.159-11.978h2.947l4.167 11.978zm-3.046-9.687-1.536 4.905h3.13l-1.536-4.905zm9.438-2.291v7.495c0 1.536.905 2.54 2.515 2.54 1.602 0 2.507-1.004 2.507-2.54v-7.495h2.507v7.744c0 2.64-1.951 4.441-5.014 4.441-3.071 0-5.022-1.801-5.022-4.44v-7.745zm17.265 9.903v2.075h-7.744v-11.978h2.507v9.903zm6.89-10.11c3.545 0 5.777 2.382 5.777 6.2 0 3.81-2.232 6.192-5.777 6.192-3.553 0-5.777-2.382-5.777-6.192 0-3.818 2.224-6.2 5.777-6.2zm0 2.091c-1.959 0-3.22 1.594-3.22 4.109 0 2.507 1.253 4.092 3.22 4.092 1.96 0 3.212-1.585 3.212-4.092 0-2.515-1.253-4.109-3.212-4.109z" fill="#338d56"/></g></svg>